G04 Layer_Color=16711935*
%FSAX25Y25*%
%MOIN*%
G70*
G01*
G75*
%ADD16C,0.01000*%
%ADD22C,0.00700*%
%ADD23C,0.00600*%
D16*
X0375878Y0219590D02*
Y0265549D01*
X0349943Y0219590D02*
Y0273716D01*
X0362910Y0220590D02*
X0375878D01*
X0349943D02*
X0362910D01*
X0369878Y0222590D02*
X0375878Y0220590D01*
X0369878Y0218590D02*
X0375878Y0220590D01*
X0349943D02*
X0355943Y0218590D01*
X0349943Y0220590D02*
X0355943Y0222590D01*
X0375878Y0219787D02*
Y0265549D01*
X0392610Y0219787D02*
Y0255516D01*
X0375878Y0220787D02*
X0384244D01*
X0392610D01*
X0375878D02*
X0381878Y0218787D01*
X0375878Y0220787D02*
X0381878Y0222787D01*
X0386610D02*
X0392610Y0220787D01*
X0386610Y0218787D02*
X0392610Y0220787D01*
X0274500Y0226579D02*
Y0255516D01*
X0289854Y0226579D02*
Y0265549D01*
Y0227579D02*
X0299854D01*
X0264500D02*
X0274500D01*
X0289854D02*
X0295854Y0225579D01*
X0289854Y0227579D02*
X0295854Y0229579D01*
X0268500D02*
X0274500Y0227579D01*
X0268500Y0225579D02*
X0274500Y0227579D01*
X0394595Y0257500D02*
X0434161D01*
X0297553Y0273248D02*
X0434161D01*
X0433161D02*
Y0283248D01*
Y0247500D02*
Y0257500D01*
Y0273248D02*
X0435161Y0279248D01*
X0431161D02*
X0433161Y0273248D01*
X0431161Y0251500D02*
X0433161Y0257500D01*
X0435161Y0251500D01*
X0394595Y0319311D02*
X0443217D01*
X0383577Y0303563D02*
X0443217D01*
X0442216Y0293563D02*
Y0303563D01*
Y0319311D02*
Y0329311D01*
X0440216Y0297563D02*
X0442216Y0303563D01*
X0444216Y0297563D01*
X0442216Y0319311D02*
X0444216Y0325311D01*
X0440216D02*
X0442216Y0319311D01*
X0392610Y0321295D02*
Y0342752D01*
X0274500Y0321295D02*
Y0342752D01*
X0347051Y0341752D02*
X0392610D01*
X0274500D02*
X0316860D01*
X0386610Y0343752D02*
X0392610Y0341752D01*
X0386610Y0339752D02*
X0392610Y0341752D01*
X0274500D02*
X0280500Y0339752D01*
X0274500Y0341752D02*
X0280500Y0343752D01*
X0223500Y0257500D02*
X0272516D01*
X0223500Y0319311D02*
X0272516D01*
X0224500Y0257500D02*
Y0272210D01*
Y0301401D02*
Y0319311D01*
Y0257500D02*
X0226500Y0263500D01*
X0222500D02*
X0224500Y0257500D01*
X0222500Y0313311D02*
X0224500Y0319311D01*
X0226500Y0313311D01*
D22*
X0301665Y0273248D02*
G03*
X0301665Y0273248I-0011811J0000000D01*
G01*
X0387689D02*
G03*
X0387689Y0273248I-0011811J0000000D01*
G01*
Y0303563D02*
G03*
X0387689Y0303563I-0011811J0000000D01*
G01*
D23*
X0356944Y0217140D02*
X0354944Y0216140D01*
X0352945Y0214141D01*
Y0212141D01*
X0353945Y0211142D01*
X0355944D01*
X0356944Y0212141D01*
Y0213141D01*
X0355944Y0214141D01*
X0352945D01*
X0358943Y0211142D02*
Y0212141D01*
X0359943D01*
Y0211142D01*
X0358943D01*
X0367940Y0217140D02*
X0363941D01*
Y0214141D01*
X0365941Y0215140D01*
X0366940D01*
X0367940Y0214141D01*
Y0212141D01*
X0366940Y0211142D01*
X0364941D01*
X0363941Y0212141D01*
X0369939D02*
X0370939Y0211142D01*
X0372938D01*
X0373938Y0212141D01*
Y0216140D01*
X0372938Y0217140D01*
X0370939D01*
X0369939Y0216140D01*
Y0215140D01*
X0370939Y0214141D01*
X0373938D01*
X0382420Y0210846D02*
Y0216845D01*
X0379421Y0213845D01*
X0383420D01*
X0385419Y0210846D02*
Y0211846D01*
X0386419D01*
Y0210846D01*
X0385419D01*
X0394416D02*
X0390418D01*
X0394416Y0214845D01*
Y0215845D01*
X0393417Y0216845D01*
X0391417D01*
X0390418Y0215845D01*
X0400415Y0216845D02*
X0396416D01*
Y0213845D01*
X0398415Y0214845D01*
X0399415D01*
X0400415Y0213845D01*
Y0211846D01*
X0399415Y0210846D01*
X0397415D01*
X0396416Y0211846D01*
X0270081Y0218181D02*
X0271080Y0219181D01*
X0273080D01*
X0274079Y0218181D01*
Y0217181D01*
X0273080Y0216182D01*
X0272080D01*
X0273080D01*
X0274079Y0215182D01*
Y0214182D01*
X0273080Y0213183D01*
X0271080D01*
X0270081Y0214182D01*
X0276079Y0213183D02*
Y0214182D01*
X0277078D01*
Y0213183D01*
X0276079D01*
X0281077Y0214182D02*
X0282077Y0213183D01*
X0284076D01*
X0285076Y0214182D01*
Y0218181D01*
X0284076Y0219181D01*
X0282077D01*
X0281077Y0218181D01*
Y0217181D01*
X0282077Y0216182D01*
X0285076D01*
X0287075Y0218181D02*
X0288075Y0219181D01*
X0290074D01*
X0291074Y0218181D01*
Y0214182D01*
X0290074Y0213183D01*
X0288075D01*
X0287075Y0214182D01*
Y0218181D01*
X0447557Y0256276D02*
X0441560D01*
X0444558Y0253277D01*
Y0257276D01*
X0447557Y0259276D02*
X0446558D01*
Y0260275D01*
X0447557D01*
Y0259276D01*
X0442559Y0264274D02*
X0441560Y0265273D01*
Y0267273D01*
X0442559Y0268273D01*
X0446558D01*
X0447557Y0267273D01*
Y0265273D01*
X0446558Y0264274D01*
X0442559D01*
Y0270272D02*
X0441560Y0271272D01*
Y0273271D01*
X0442559Y0274271D01*
X0446558D01*
X0447557Y0273271D01*
Y0271272D01*
X0446558Y0270272D01*
X0442559D01*
X0456613Y0302339D02*
X0450615D01*
X0453614Y0299340D01*
Y0303339D01*
X0456613Y0305339D02*
X0455613D01*
Y0306338D01*
X0456613D01*
Y0305339D01*
X0451614Y0310337D02*
X0450615Y0311336D01*
Y0313336D01*
X0451614Y0314336D01*
X0455613D01*
X0456613Y0313336D01*
Y0311336D01*
X0455613Y0310337D01*
X0451614D01*
Y0316335D02*
X0450615Y0317335D01*
Y0319334D01*
X0451614Y0320334D01*
X0455613D01*
X0456613Y0319334D01*
Y0317335D01*
X0455613Y0316335D01*
X0451614D01*
X0318460Y0343151D02*
X0319459Y0344151D01*
X0321459D01*
X0322458Y0343151D01*
Y0342152D01*
X0321459Y0341152D01*
X0320459D01*
X0321459D01*
X0322458Y0340152D01*
Y0339153D01*
X0321459Y0338153D01*
X0319459D01*
X0318460Y0339153D01*
X0324458Y0343151D02*
X0325457Y0344151D01*
X0327457D01*
X0328456Y0343151D01*
Y0339153D01*
X0327457Y0338153D01*
X0325457D01*
X0324458Y0339153D01*
Y0343151D01*
X0330456Y0338153D02*
Y0339153D01*
X0331455D01*
Y0338153D01*
X0330456D01*
X0335454Y0343151D02*
X0336454Y0344151D01*
X0338453D01*
X0339453Y0343151D01*
Y0339153D01*
X0338453Y0338153D01*
X0336454D01*
X0335454Y0339153D01*
Y0343151D01*
X0341452D02*
X0342452Y0344151D01*
X0344451D01*
X0345451Y0343151D01*
Y0339153D01*
X0344451Y0338153D01*
X0342452D01*
X0341452Y0339153D01*
Y0343151D01*
X0228099Y0273810D02*
Y0275809D01*
Y0274809D01*
X0222101D01*
X0223101Y0273810D01*
X0222101Y0282807D02*
Y0278808D01*
X0225100D01*
X0224100Y0280807D01*
Y0281807D01*
X0225100Y0282807D01*
X0227099D01*
X0228099Y0281807D01*
Y0279808D01*
X0227099Y0278808D01*
X0228099Y0284806D02*
X0227099D01*
Y0285806D01*
X0228099D01*
Y0284806D01*
X0222101Y0289805D02*
Y0293803D01*
X0223101D01*
X0227099Y0289805D01*
X0228099D01*
X0223101Y0295803D02*
X0222101Y0296802D01*
Y0298802D01*
X0223101Y0299801D01*
X0227099D01*
X0228099Y0298802D01*
Y0296802D01*
X0227099Y0295803D01*
X0223101D01*
M02*
